<svg width="512" height="512" viewBox="0 0 512 512" xmlns="http://www.w3.org/2000/svg">
  <defs>
    <linearGradient id="grad1" x1="0%" y1="0%" x2="100%" y2="100%">
      <stop offset="0%" style="stop-color:#ec4141;stop-opacity:1" />
      <stop offset="100%" style="stop-color:#c20c0c;stop-opacity:1" />
    </linearGradient>
    <filter id="shadow" x="-20%" y="-20%" width="140%" height="140%">
      <feDropShadow dx="0" dy="4" stdDeviation="8" flood-color="#000000" flood-opacity="0.3"/>
    </filter>
  </defs>

  <circle cx="256" cy="256" r="240" fill="url(#grad1)" />

  <g filter="url(#shadow)" fill="#ffffff" transform="translate(116, 106) scale(0.6)">
    <path d="M360 0H140C117.9 0 100 17.9 100 40V440C100 462.1 117.9 480 140 480H340C406.3 480 460 426.3 460 360C460 307.5 426.3 262.8 380 248C415.7 230.3 440 193.3 440 150C440 67.2 372.8 0 290 0H360ZM200 80H290C328.7 80 360 111.3 360 150C360 188.7 328.7 220 290 220H200V80ZM200 300H340C373.1 300 400 326.9 400 360C400 393.1 373.1 420 340 420H200V300Z"/>
    <path d="M260 330L320 360L260 390V330Z" fill="#ec4141"/>
  </g>
</svg>
